<svg width="24" height="24" viewBox="0 0 24 24" fill="none" xmlns="http://www.w3.org/2000/svg">
    <path d="M11.7031 0.00864295C13.1579 -0.12589 14.143 1.3401 15.1211 2.31919L21.9014 9.10923C22.4569 9.66561 23.0121 10.2215 23.5586 10.786C24.0345 11.2778 24.1731 12.4185 23.7373 12.9559C23.0435 13.8103 22.1675 14.6039 21.3828 15.3905L17.9531 18.8211C17.7555 19.0171 17.3661 19.4951 17.1113 19.6073C17.0688 19.6262 16.9849 19.5315 16.9424 19.494L14.5625 17.1073L19.6699 11.994L9.45605 1.76743C10.1977 1.06553 10.7216 0.252731 11.7031 0.00864295Z" fill="#F7A470"/>
    <path d="M12.0116 9.4314C12.1893 9.57848 12.6518 10.0655 12.8329 10.2468L14.5722 11.9949L9.4657 17.1023C11.1238 18.8104 12.8847 20.5278 14.5712 22.2166C13.7471 23.0284 13.1756 23.9203 12.0106 23.9998C11.6692 23.971 11.2465 23.9065 10.9804 23.6833C10.2547 23.0749 9.525 22.2831 8.85145 21.6072L4.35242 17.1042L12.0116 9.4314Z" fill="#EE8340"/>
    <path d="M6.8993 4.32983C7.00517 4.39459 7.58337 4.98599 7.70106 5.10425L9.46375 6.87964L2.23231 14.1208L1.80653 14.5486C0.809599 13.5778 -0.713217 12.4073 0.376838 10.9119C0.824485 10.2979 1.805 9.42843 2.37098 8.86206L6.8993 4.32983Z" fill="#EE8340"/>
</svg>